# xmcd
#
# Track frame offsets: 
#        150
#        22066
#        44180
#        61768
#        80817
#        332550
#
# Disc length: 4440 seconds
#
# Revision: 1
# Processed by: cddbd v1.5.2PL0 Copyright (c) Steve Scherf et al.
# Submitted via: ExactAudioCopyFreeDBPlugin 1.0
#
DISCID=52115606
DTITLE=玉置成実 - Realize Reproduction 〜GUNDAM SEED EDITION〜
DYEAR=2003
DGENRE=JPop
TTITLE0=Realize -KZ Strictly Uptempo Mix-
TTITLE1=Realize -fly in to the Universe Mix-
TTITLE2=Long Way Behind
TTITLE3=Realize -GUNDAM SEED OPENING Ver.-
TTITLE4=deta
TTITLE5=deta
EXTD=YEAR: 2003
EXTT0=
EXTT1=
EXTT2=
EXTT3=
EXTT4=
EXTT5=
PLAYORDER=
